
General
Complete name                  : Justin Bieber - As Long As You Love Me ft. Big Sean  HD {ECS}.mp4
Format                         : MPEG-4
Format profile                 : Base Media
Codec ID                       : isom
File size                      : 35.0 MiB
Duration                       : 5mn 51s
Overall bit rate mode          : Variable
Overall bit rate               : 835 Kbps
Encoded date                   : UTC 2012-08-01 17:18:49
Tagged date                    : UTC 2012-08-01 17:18:49

Video
ID                             : 1
Format                         : AVC
Format/Info                    : Advanced Video Codec
Format profile                 : High@L4.1
Format settings, CABAC         : Yes
Format settings, ReFrames      : 3 frames
Codec ID                       : avc1
Codec ID/Info                  : Advanced Video Coding
Duration                       : 5mn 51s
Bit rate mode                  : Variable
Bit rate                       : 704 Kbps
Maximum bit rate               : 40.0 Mbps
Width                          : 1 280 pixels
Height                         : 352 pixels
Display aspect ratio           : 3.636
Frame rate mode                : Constant
Frame rate                     : 23.976 fps
Color space                    : YUV
Chroma subsampling             : 4:2:0
Bit depth                      : 8 bits
Scan type                      : Progressive
Bits/(Pixel*Frame)             : 0.065
Stream size                    : 29.5 MiB (84%)
Writing library                : x264 core 125 r2200 999b753

Audio
ID                             : 2
Format                         : AC-3
Format/Info                    : Audio Coding 3
Mode extension                 : CM (complete main)
Format settings, Endianness    : Big
Codec ID                       : ac-3
Duration                       : 5mn 51s
Bit rate mode                  : Constant
Bit rate                       : 128 Kbps
Channel(s)                     : 2 channels
Channel positions              : Front: L R
Sampling rate                  : 44.1 KHz
Bit depth                      : 16 bits
Compression mode               : Lossy
Stream size                    : 5.37 MiB (15%)

 
http://i1271.photobucket.com/albums/jj629/sameer_ecs/JustinBieber-AsLongAsYouLoveMeftBigSeanHDECSmp4_thumbs_20120801_225303.jpg
